<mxfile host="app.diagrams.net" modified="2024-06-04T11:37:31.210Z" agent="Mozilla/5.0 (Windows NT 10.0; Win64; x64) AppleWebKit/537.36 (KHTML, like Gecko) Chrome/116.0.0.0 Safari/537.36" version="24.4.13" etag="RWgiqYlSj5YTesOaR9F0" type="github">
  <diagram name="第 1 页" id="gXE2XC_7MzklYzRh_Yvv">
    <mxGraphModel>
      <root>
        <mxCell id="0" />
        <mxCell id="1" parent="0" />
      </root>
    </mxGraphModel>
  </diagram>
</mxfile>
